<?xml version="1.0" encoding="utf-8"?>
<!-- Generator: Adobe Illustrator 22.1.0, SVG Export Plug-In . SVG Version: 6.00 Build 0)  -->
<svg version="1.1" id="Layer_1" xmlns="http://www.w3.org/2000/svg" xmlns:xlink="http://www.w3.org/1999/xlink" x="0px" y="0px"
	 viewBox="0 0 781 781" style="enable-background:new 0 0 781 781;" xml:space="preserve">
<style type="text/css">
	.st0{fill:#986EDC;}
</style>
<g>
	<path class="st0" d="M606.2,55c-30,88.2-115.2,151.9-215.7,151.9S204.9,143.2,174.8,55C77.1,121.6,13.1,232.2,13.1,357.5
		C13.1,561,182,726,390.5,726s377.4-165,377.4-368.5C767.9,232.2,703.9,121.6,606.2,55z M690.2,498.3c-0.1,0.4-0.2,0.7-0.4,1.1
		c-4.9,14-12.3,30.1-23.5,47.4c-10.2,15.8-23.5,32.7-40.9,50c-130.8,130.1-339.1,130.1-469.9,0c-17.4-17.3-30.7-34.2-40.9-50
		c-11.2-17.3-18.5-33.3-23.5-47.4c-0.1-0.4-0.2-0.8-0.4-1.1c-5.5-17.2-8.6-35.6-8.8-54.6v-2.1c0-99.7,77.8-180.5,173.8-180.5
		c54.3,0,102.8,25.8,134.6,66.4c31.9-40.5,80.4-66.4,134.6-66.4c96,0,173.8,80.8,173.8,180.5v2.1C698.7,462.7,695.7,481,690.2,498.3
		z"/>
	<path class="st0" d="M599.1,368.5c-42.1-23.7-95.8-10.2-120.9,30.2l0,0L390.5,547l-87.7-148.2l0,0c-25.1-40.4-78.8-54-120.9-30.2
		c-42.7,24.1-57.3,77.4-32.7,119.1c24.7,41.7,79.3,56,122,31.9c14.8-8.4,26.2-20.2,33.8-33.9l60.9,103l24.6,41.6l24.6-41.6l60.9-103
		c7.6,13.7,19,25.6,33.8,33.9c42.7,24.1,97.3,9.8,122-31.9C656.4,445.9,641.8,392.6,599.1,368.5z"/>
</g>
</svg>
