<svg id="Layer_1" data-name="Layer 1" xmlns="http://www.w3.org/2000/svg" viewBox="0 0 250.45 66.09"><defs><style>.cls-1,.cls-2{fill:#986edc;}.cls-2{font-size:40px;font-family:Coves-Bold, Coves;font-weight:700;letter-spacing:0.02em;}.cls-3{letter-spacing:0em;}.cls-4{font-size:20px;fill:#666;font-family:Coves-Light, Coves;}.cls-5{letter-spacing:0.05em;}.cls-6{letter-spacing:0.02em;}.cls-7{letter-spacing:0.03em;}.cls-8{letter-spacing:0.05em;}.cls-9{letter-spacing:0.04em;}.cls-10{letter-spacing:0.02em;}</style></defs><title>Website Banner</title><path class="cls-1" d="M78.24,13a22.2,22.2,0,0,1-41.8,0A35.43,35.43,0,0,0,20.77,42.34C20.77,62.06,37.14,78,57.34,78s36.56-16,36.56-35.7A35.45,35.45,0,0,0,78.24,13ZM86,56a.49.49,0,0,1,0,.11,21.19,21.19,0,0,1-2.28,4.6,32.15,32.15,0,0,1-7.76,8.13,31.58,31.58,0,0,1-38,0,32.33,32.33,0,0,1-7.76-8.13,21.43,21.43,0,0,1-2.28-4.6.36.36,0,0,0,0-.11,17.83,17.83,0,0,1-.86-5.3v-.2C27,40.81,34.51,33,43.83,33a16.54,16.54,0,0,1,13.06,6.44A16.61,16.61,0,0,1,70,33c9.32,0,16.87,7.84,16.87,17.51v.2A17.24,17.24,0,0,1,86,56Z" transform="translate(-20.77 -11.96)"/><path class="cls-1" d="M77.55,43.41a8.76,8.76,0,0,0-11.71,2.92h0L57.34,60.7l-8.5-14.36h0a8.75,8.75,0,0,0-11.71-2.92A8.34,8.34,0,0,0,34,55a8.77,8.77,0,0,0,11.82,3.09,8.54,8.54,0,0,0,3.27-3.29l5.91,10,2.38,4,2.38-4,5.9-10a8.5,8.5,0,0,0,3.28,3.29A8.77,8.77,0,0,0,80.72,55,8.36,8.36,0,0,0,77.55,43.41Z" transform="translate(-20.77 -11.96)"/><text class="cls-2" transform="translate(84.76 34)">Me<tspan class="cls-3" x="50.95" y="0">lli</tspan><tspan x="78.5" y="0">Moe</tspan></text><text class="cls-4" transform="translate(84.69 59.16)"><tspan class="cls-5">T</tspan><tspan class="cls-6" x="9.07" y="0">h</tspan><tspan x="18.93" y="0">e </tspan><tspan class="cls-7" x="33.43" y="0">A</tspan><tspan class="cls-8" x="47.01" y="0">r</tspan><tspan x="53.34" y="0">t </tspan><tspan class="cls-9" x="63.1" y="0">o</tspan><tspan x="73.25" y="0">f </tspan><tspan class="cls-10" x="83" y="0">M</tspan><tspan class="cls-6" x="97.9" y="0">o</tspan><tspan x="107.79" y="0">e </tspan><tspan class="cls-10" x="122.29" y="0">M</tspan><tspan class="cls-6" x="137.2" y="0">o</tspan><tspan x="147.09" y="0">en</tspan></text></svg>