<?xml version="1.0" encoding="utf-8"?>
<!-- Generator: Adobe Illustrator 22.1.0, SVG Export Plug-In . SVG Version: 6.00 Build 0)  -->
<svg version="1.1" id="Layer_1" xmlns="http://www.w3.org/2000/svg" xmlns:xlink="http://www.w3.org/1999/xlink" x="0px" y="0px"
	 viewBox="0 0 781 781" style="enable-background:new 0 0 781 781;" xml:space="preserve">
<style type="text/css">
	.st0{fill:#986EDC;}
	.st1{fill:#FFFFFF;}
</style>
<g>
	<path class="st0" d="M606.2,55c-30,88.2-115.2,151.9-215.7,151.9S204.9,143.2,174.8,55C77.1,121.6,13.1,232.2,13.1,357.5
		C13.1,561,182,726,390.5,726s377.4-165,377.4-368.5C767.9,232.2,703.9,121.6,606.2,55z M690.2,498.3c-0.1,0.4-0.2,0.7-0.4,1.1
		c-4.9,14-12.3,30.1-23.5,47.4c-10.2,15.8-23.5,32.7-40.9,50c-130.8,130.1-339.1,130.1-469.9,0c-17.4-17.3-30.7-34.2-40.9-50
		c-11.2-17.3-18.5-33.3-23.5-47.4c-0.1-0.4-0.2-0.8-0.4-1.1c-5.5-17.2-8.6-35.6-8.8-54.6v-2.1c0-99.7,77.8-180.5,173.8-180.5
		c54.3,0,102.8,25.8,134.6,66.4c31.9-40.5,80.4-66.4,134.6-66.4c96,0,173.8,80.8,173.8,180.5v2.1C698.7,462.7,695.7,481,690.2,498.3
		z"/>
	<path class="st1" d="M524.9,261.1c-54.2,0-102.7,25.9-134.6,66.4c-31.8-40.6-80.3-66.4-134.6-66.4c-96,0-173.8,80.8-173.8,180.5
		v2.1c0.2,19,3.3,37.4,8.8,54.6c0.2,0.3,0.3,0.7,0.4,1.1c5,14.1,12.3,30.1,23.5,47.4c10.2,15.8,23.5,32.7,40.9,50
		c130.8,130.1,339.1,130.1,469.9,0c17.4-17.3,30.7-34.2,40.9-50c11.2-17.3,18.6-33.4,23.5-47.4c0.2-0.4,0.3-0.7,0.4-1.1
		c5.5-17.3,8.5-35.6,8.5-54.6v-2.1C698.7,341.9,620.9,261.1,524.9,261.1z M631.8,487.7c-24.7,41.7-79.3,56-122,31.9
		c-14.8-8.3-26.2-20.2-33.8-33.9l-60.9,103l-24.6,41.6l-24.6-41.6l-60.9-103c-7.6,13.7-19,25.5-33.8,33.9
		c-42.7,24.1-97.3,9.8-122-31.9c-24.6-41.7-10-95,32.7-119.1c14.1-7.9,29.4-11.7,44.6-11.7c30.2,0,59.6,15,76.3,41.9L390.5,547
		l87.7-148.3c25.1-40.4,78.8-53.9,120.9-30.2C641.8,392.6,656.4,445.9,631.8,487.7z"/>
	<path class="st0" d="M631.8,487.7c-24.7,41.7-79.3,56-122,31.9c-14.8-8.3-26.2-20.2-33.8-33.9l-60.9,103l-24.6,41.6l-24.6-41.6
		l-60.9-103c-7.6,13.7-19,25.5-33.8,33.9c-42.7,24.1-97.3,9.8-122-31.9c-24.6-41.7-10-95,32.7-119.1c14.1-7.9,29.4-11.7,44.6-11.7
		c30.2,0,59.6,15,76.3,41.9L390.5,547l87.7-148.3c25.1-40.4,78.8-53.9,120.9-30.2C641.8,392.6,656.4,445.9,631.8,487.7z"/>
</g>
</svg>
